# Blender v3.0.1 OBJ File: ''
# www.blender.org
mtllib new.mtl
o Plane
v -1.374295 -0.365477 0.000000
v -1.831005 -0.321167 0.000000
v -1.436022 0.164182 0.000000
v -1.863278 0.161777 0.000000
v -1.154959 -0.393963 -0.000000
v -1.253242 0.176842 -0.000000
v -0.212335 -0.204603 -0.000000
v -0.250562 0.369366 -0.000000
v -2.167842 -0.352817 0.000000
v -2.200116 0.130126 0.000000
v -2.448808 -0.364092 0.000000
v -2.477935 0.175067 0.000000
v -2.570185 -0.364160 0.000000
v -2.596783 0.092309 0.000000
v -2.649648 -0.366262 0.000000
v -2.673989 0.056432 0.000000
v -2.849490 -0.373866 0.000000
v -2.871041 0.007065 0.000000
v -3.230284 -0.249385 0.000000
v -3.231812 -0.226507 0.000000
v 0.051028 -0.113197 -0.000000
v 0.029192 0.214659 -0.000000
v -1.831367 -0.321167 -0.126231
v -1.441654 0.169994 -0.136881
v -1.862987 0.162122 -0.127883
v -1.367795 -0.370367 -0.151339
v -0.260441 0.370179 -0.106952
v -2.167842 -0.352817 -0.126201
v -2.181040 0.218870 -0.130533
v -2.551104 0.150872 -0.123529
v -2.552393 -0.363048 -0.126689
v -2.645554 0.069097 -0.114517
v -2.849490 -0.373866 -0.126201
v 0.046665 -0.293890 -0.095706
v -2.167842 -0.352817 -0.063100
v -2.178642 0.156159 -0.068275
v -2.848790 0.010669 -0.118797
v 0.029192 0.214659 -0.063100
v -1.154959 -0.393963 -0.063100
v -2.444305 -0.371388 -0.091839
v -2.551104 0.150872 -0.065772
v -2.207285 -0.434113 -0.087249
v -2.405015 -0.442048 -0.102052
v -0.071578 0.635823 -0.106012
v 0.071071 0.536517 -0.109946
v 0.054157 0.521975 -0.081726
v -0.069483 0.608048 -0.078316
v -0.816794 -0.180828 -0.000000
v -2.350064 -0.268736 0.000000
v -3.230588 -0.244834 0.000000
v 0.046684 -0.047976 -0.000000
v -2.403015 -0.290504 -0.239722
v -3.229747 -0.245518 -0.062918
v -1.260591 -0.702269 -0.898606
v -1.360138 -0.688766 -0.904865
v -0.530193 0.366718 -0.000000
v -0.475217 -0.206369 -0.000000
v -0.440858 -0.375560 -0.207283
v -0.534096 0.363792 -0.125616
v -0.287117 -0.280434 -0.129291
v -0.243031 -0.399562 -0.110746
v -0.442147 -0.417463 -0.141805
v -0.247504 -0.392732 -0.062926
v -0.446636 -0.392675 -0.092288
v -1.239678 0.169266 -0.139651
v -2.200805 0.148138 -0.126201
v -1.885097 0.205917 -0.054546
v -1.250522 0.177834 -0.067045
v -1.436712 0.324965 -0.063100
v -0.075993 0.629570 -0.146163
v 0.066655 0.530263 -0.089418
v -1.827953 -0.218784 -0.146140
v -1.386200 -0.262886 -0.132749
v -3.231658 -0.243020 -0.125870
v -3.227811 -0.235643 -0.062000
v -2.200953 -0.007591 -0.219224
v -2.571017 -0.094147 -0.212220
v -1.845157 -0.319301 0.102404
v -1.442212 0.172759 0.136812
v -1.863656 0.169001 0.128431
v -0.258326 0.368864 0.105747
v -2.181040 0.218870 0.130533
v -2.448808 -0.364092 0.126201
v -2.551104 0.150872 0.123529
v -2.564796 -0.361888 0.126820
v -2.851593 -0.373127 0.126201
v -2.168287 -0.356721 0.113417
v -3.231907 -0.241935 0.125958
v -2.188533 0.164001 0.068917
v -2.848790 0.010669 0.118797
v -2.449298 -0.363393 0.063016
v 0.047008 -0.294772 0.099926
v 0.029192 0.214659 0.063100
v -1.154959 -0.393963 0.063100
v -2.643519 0.069497 0.115443
v -2.551104 0.150872 0.065772
v -2.207285 -0.434113 0.087249
v -2.405015 -0.442048 0.102052
v -0.071578 0.635823 0.106011
v 0.071071 0.536517 0.109946
v 0.054157 0.521975 0.081726
v -0.069483 0.608048 0.078316
v -1.364992 -0.371747 0.149211
v -2.414835 -0.309475 0.235619
v -1.260471 -0.706120 0.899117
v -1.361317 -0.688490 0.904748
v -0.439277 -0.393132 0.162381
v -0.527269 0.366081 0.125815
v -0.249371 -0.281398 0.126927
v -0.244154 -0.402037 0.105996
v -0.247375 -0.392275 0.063820
v -0.446157 -0.397135 0.091111
v -1.244835 0.169393 0.139314
v -2.200805 0.148138 0.126201
v -1.898744 0.197162 0.054856
v -1.252137 0.178470 0.069978
v -1.436712 0.324965 0.063100
v -0.075993 0.629570 0.146163
v 0.066655 0.530263 0.089417
v -1.822628 -0.212949 0.155484
v -1.386394 -0.262074 0.130505
v -3.229713 -0.241107 0.062413
v -2.200953 -0.007591 0.219224
v -2.571017 -0.094147 0.212220
vt 0.000000 0.198930
vt 0.000000 1.000000
vt 0.000000 1.000000
vt 0.000000 1.000000
vt 0.000000 1.000000
vt 1.000000 0.198930
vt 1.000000 0.000000
vt 1.000000 0.000000
vt 1.000000 0.000000
vt 1.000000 0.000000
vt 1.000000 0.000000
vt 1.000000 0.000000
vt 1.000000 1.000000
vt 1.000000 0.185196
vt 1.000000 1.000000
vt 1.000000 1.000000
vt 1.000000 1.000000
vt 1.000000 1.000000
vt 1.000000 0.000000
vt 1.000000 0.000000
vt 1.000000 0.000000
vt 0.000000 1.000000
vt 0.000000 1.000000
vt 0.000000 1.000000
vt 0.000000 0.000000
vt 0.000000 0.045650
vt 0.000000 0.198930
vt 0.000000 1.000000
vt 1.000000 0.198930
vt 1.000000 0.000000
vt 0.000000 0.198930
vt 0.000000 0.000000
vt 1.000000 0.084893
vt 1.000000 1.000000
vt 1.000000 0.198930
vt 1.000000 1.000000
vt 0.000000 0.000000
vt 1.000000 1.000000
vt 1.000000 1.000000
vt 1.000000 1.000000
vt 1.000000 1.000000
vt 0.000000 0.000000
vt 0.000000 0.124860
vt 0.000000 0.198930
vt 0.000000 0.000000
vt 0.000000 0.000000
vt 0.000000 1.000000
vt 0.000000 1.000000
vt 0.000000 0.000000
vt 0.000000 1.000000
vt 0.000000 1.000000
vt 0.000000 1.000000
vt 1.000000 0.198930
vt 0.000000 0.198930
vt 0.000000 1.000000
vt 0.000000 1.000000
vt 1.000000 0.198930
vt 1.000000 0.000000
vt 1.000000 0.000000
vt 1.000000 0.014208
vt 1.000000 0.350929
vt 1.000000 0.000000
vt 0.000000 0.047694
vt 1.000000 0.000000
vt 0.000000 0.000000
vt 0.000000 0.000000
vt 1.000000 0.433955
vt 1.000000 1.000000
vt 0.000000 1.000000
vt 1.000000 0.000000
vt 1.000000 1.000000
vt 1.000000 1.000000
vt 1.000000 0.000000
vt 1.000000 0.072414
vt 1.000000 0.198930
vt 0.000000 0.092678
vt 0.000000 0.003580
vt 0.000000 0.198930
vt 1.000000 1.000000
vt 0.000000 1.000000
vt 1.000000 1.000000
vt 1.000000 1.000000
vt 1.000000 1.000000
vt 1.000000 1.000000
vt 0.000000 1.000000
vt 0.000000 1.000000
vt 0.000000 1.000000
vt 0.000000 1.000000
vt 0.000000 1.000000
vt 1.000000 0.198930
vt 1.000000 0.000000
vt 0.000000 1.000000
vt 1.000000 1.000000
vt 1.000000 0.000000
vt 1.000000 0.000000
vt 0.000000 0.000000
vt 0.000000 0.000000
vt 0.000000 0.000000
vt 1.000000 1.000000
vt 0.000000 0.000000
vt 0.000000 0.000000
vt 1.000000 1.000000
vt 0.000000 1.000000
vt 1.000000 0.000000
vt 0.000000 1.000000
vt 1.000000 1.000000
vt 1.000000 0.069792
vt 0.000000 1.000000
vt 1.000000 1.000000
vt 1.000000 1.000000
vt 0.000000 1.000000
vt 1.000000 1.000000
vt 1.000000 1.000000
vt 1.000000 1.000000
vt 0.000000 1.000000
vt 0.000000 0.000000
vt 0.000000 0.000000
vt 0.000000 0.000000
vt 0.000000 1.000000
vt 1.000000 0.000000
vt 0.000000 1.000000
vt 0.000000 1.000000
vt 1.000000 1.000000
vt 1.000000 1.000000
vn 0.0000 0.0000 1.0000
vn -0.5504 0.8325 -0.0630
vn 0.9104 -0.2734 -0.3105
vn 0.8997 -0.4365 0.0000
vn -0.6869 0.4865 0.5398
vn 0.9835 0.0655 -0.1685
vn -0.0691 0.9975 0.0120
vn -0.9977 -0.0668 0.0075
vn 0.0947 -0.1188 -0.9884
vn 0.0029 0.0234 -0.9997
vn 0.0122 0.0308 -0.9995
vn -0.0615 0.2347 -0.9701
vn 0.4407 0.0234 -0.8973
vn 0.9851 0.1563 0.0719
vn -0.2599 0.9537 -0.1514
vn 0.1576 -0.8332 -0.5301
vn 0.4390 0.8288 0.3469
vn -0.9813 0.1889 0.0373
vn 0.0740 0.0335 0.9967
vn 0.0435 -0.8992 0.4354
vn -0.0146 -0.8928 0.4502
vn -0.0020 -0.0040 1.0000
vn 0.0922 0.0337 0.9952
vn 0.0388 -0.9948 0.0937
vn 0.3315 -0.9133 -0.2367
vn -0.9976 -0.0666 0.0180
vn 0.0006 -0.9999 0.0111
vn 0.0380 -0.9993 0.0065
vn 0.9851 0.0656 0.1589
vn -0.0691 0.9974 -0.0221
vn -0.8717 -0.4901 0.0013
vn 0.0820 -0.1669 0.9826
vn 0.0030 0.0238 0.9997
vn 0.0083 0.0279 0.9996
vn -0.8672 -0.0629 0.4940
vn 0.9817 0.1821 -0.0556
vn -0.2586 0.9539 0.1521
vn 0.0029 0.0603 -0.9982
vn 0.0229 -0.0181 -0.9996
vn -0.5578 -0.8086 -0.1873
vn 0.1440 -0.4927 -0.8582
vn -0.0138 -0.0113 -0.9998
vn 0.0673 0.0315 -0.9972
vn -0.0812 0.8827 0.4629
vn -0.0007 -0.8773 -0.4800
vn 0.0804 -0.8838 -0.4609
vn -0.0016 -0.0021 -1.0000
vn 0.1013 0.0300 -0.9944
vn 0.0936 -0.9956 0.0000
vn -0.0120 -0.9827 -0.1847
vn 0.3306 -0.9295 0.1637
vn 0.0269 0.8883 0.4584
vn -0.9988 0.0265 -0.0408
vn -0.0397 -0.9989 0.0242
vn 0.1017 -0.6279 0.7716
vn -0.1007 -0.9948 0.0153
vn 0.0370 -0.9993 0.0015
vn -0.0161 0.9998 -0.0081
vn 0.1908 -0.4050 0.8942
vn 0.0608 0.9981 -0.0098
vn 0.4797 0.8771 -0.0237
vn 0.0509 -0.9975 0.0485
vn -0.1234 -0.9922 0.0189
vn -0.5469 0.8306 -0.1048
vn 0.0264 -0.9996 -0.0051
vn -0.1220 0.8616 0.4926
vn -0.3173 -0.9481 -0.0222
vn 0.0936 -0.9956 -0.0002
vn -0.0301 -0.1857 -0.9821
vn -0.0770 -0.2198 0.9725
vn 0.4642 0.6427 0.6094
vn 0.8024 -0.0176 0.5965
vn -0.0878 0.0165 0.9960
vn -0.0033 -0.0115 -0.9999
vn 0.9960 0.0483 -0.0750
vn -0.4509 0.0066 -0.8925
vn 0.7565 0.6539 0.0030
vn 0.1044 0.1194 -0.9873
vn -0.0892 -0.9178 0.3869
vn -0.8673 -0.0670 -0.4933
vn -0.0183 0.4402 -0.8977
vn -0.2529 0.9675 -0.0082
vn -0.0572 -0.3814 0.9226
vn 0.0099 -0.0021 -0.9999
vn -0.9963 -0.0620 -0.0593
vn -0.0042 -0.9512 0.3086
vn -0.0866 0.9267 -0.3658
vn 0.2362 0.6528 -0.7198
vn -0.1018 0.5861 -0.8038
vn 0.0058 0.0180 -0.9998
vn 0.0025 0.0605 0.9982
vn 0.0196 -0.0020 0.9998
vn -0.5578 -0.8086 0.1873
vn 0.0922 -0.3574 0.9294
vn -0.0915 0.0097 0.9958
vn 0.1674 -0.6255 0.7621
vn -0.0947 0.9068 -0.4108
vn -0.5505 0.8348 -0.0081
vn 0.9531 -0.2742 0.1283
vn -0.6908 0.4838 -0.5374
vn -0.0184 -0.9898 0.1411
vn -0.0191 -0.9998 -0.0109
vn 0.0195 0.9208 -0.3895
vn 0.0977 -0.6166 -0.7812
vn -0.1018 -0.9946 -0.0194
vn -0.0097 0.9999 0.0047
vn 0.1980 -0.4148 -0.8881
vn 0.0498 0.9976 -0.0489
vn 0.4795 0.8772 0.0247
vn 0.0335 -0.9993 -0.0180
vn -0.1220 -0.9922 -0.0240
vn 0.0215 -0.9995 -0.0230
vn -0.5499 0.8260 0.1240
vn -0.1002 0.8599 -0.5005
vn -0.3183 -0.9476 0.0261
vn 0.1040 -0.9946 -0.0024
vn 0.0646 -0.3057 0.9499
vn 0.0763 -0.0794 -0.9939
vn 0.4642 0.6427 -0.6094
vn 0.8102 -0.0201 -0.5859
vn -0.0850 0.0172 -0.9962
vn -0.0088 -0.0077 0.9999
vn 0.9962 0.0490 0.0722
vn -0.9843 0.1760 -0.0144
vn -0.4422 0.0176 0.8968
vn 0.0829 0.1259 0.9886
vn -0.0588 0.2197 0.9738
vn -0.0836 -0.9192 -0.3849
vn 0.2679 -0.1534 0.9512
vn -0.2523 0.9677 0.0003
vn -0.0063 0.3122 0.9500
vn -0.0492 -0.3778 -0.9246
vn 0.0177 0.0116 0.9998
vn -0.0206 -0.9986 -0.0489
vn -0.0749 0.9411 0.3297
vn 0.2358 0.6463 0.7257
vn -0.1067 0.6183 0.7786
vn 0.0208 0.0279 0.9994
vn 0.4390 0.8288 -0.3469
vn 0.0922 -0.3574 -0.9294
vn -0.4214 0.9068 0.0086
vn -0.6268 0.7450 0.2280
vn -0.6546 0.7560 0.0000
vn -0.2601 0.9655 0.0108
vn -0.4214 0.9069 -0.0043
vn -0.6302 0.7433 -0.2242
vn -0.6609 0.7505 0.0000
vn -0.2598 0.9656 -0.0102
vn 0.1101 0.8719 -0.4772
vn 0.1352 0.8697 0.4746
usemtl Material.001
s off
f 48/1/1 6/2/1 3/3/1
f 48/1/1 8/4/1 56/5/1
f 49/6/1 9/7/1 2/8/1
f 49/6/1 11/9/1 9/7/1
f 49/6/1 13/10/1 11/9/1
f 49/6/1 15/11/1 13/10/1
f 49/6/1 17/12/1 15/11/1
f 37/13/2 74/14/2 75/15/2
f 29/16/3 36/17/3 66/18/3
f 35/19/4 42/20/4 28/21/4
f 27/22/5 47/23/5 44/24/5
f 21/25/6 34/26/6 51/27/6
f 6/2/7 68/28/7 3/3/7
f 50/29/8 74/14/8 19/30/8
f 60/31/9 34/26/9 61/32/9
f 31/33/10 74/14/10 37/13/10
f 31/33/11 37/13/11 32/34/11
f 29/16/12 52/35/12 30/36/12
f 58/37/13 60/31/13 61/32/13
f 18/38/1 49/6/1 16/39/1
f 16/39/1 49/6/1 14/40/1
f 14/40/1 49/6/1 12/41/1
f 26/42/14 54/43/14 73/44/14
f 57/45/1 48/1/1 5/46/1
f 59/47/15 65/48/15 68/28/15
f 61/32/16 62/49/16 58/37/16
f 45/50/17 70/51/17 71/52/17
f 75/15/18 74/14/18 53/53/18
f 109/54/19 81/55/19 108/56/19
f 104/57/20 83/58/20 87/59/20
f 104/57/21 85/60/21 83/58/21
f 85/60/22 88/61/22 86/62/22
f 109/54/23 92/63/23 81/55/23
f 85/60/24 86/62/24 91/64/24
f 92/63/25 110/65/25 111/66/25
f 122/67/26 20/68/26 50/29/26
f 91/64/27 13/10/27 11/9/27
f 86/62/28 17/12/28 15/11/28
f 92/63/29 21/25/29 51/27/29
f 116/69/30 6/2/30 3/3/30
f 98/70/31 83/58/31 91/64/31
f 92/63/32 109/54/32 110/65/32
f 88/61/33 85/60/33 90/71/33
f 90/71/34 85/60/34 95/72/34
f 78/73/35 106/74/35 120/75/35
f 105/76/36 103/77/36 121/78/36
f 49/6/1 48/1/1 3/3/1 4/79/1
f 113/80/37 108/56/37 116/69/37
f 80/81/38 114/82/38 82/83/38
f 115/84/39 117/85/39 116/69/39
f 100/86/40 118/87/40 99/88/40
f 19/30/1 17/12/1 49/6/1 50/29/1
f 22/89/1 8/4/1 48/1/1 51/27/1
f 28/21/41 52/35/41 72/90/41 23/91/41
f 73/44/42 24/92/42 65/48/42
f 60/31/43 59/47/43 27/22/43
f 30/36/44 41/93/44 36/17/44 29/16/44
f 52/35/45 28/21/45 40/94/45
f 52/35/46 40/94/46 31/33/46
f 31/33/47 33/95/47 74/14/47
f 60/31/48 27/22/48 34/26/48
f 23/91/49 35/19/49 28/21/49
f 26/42/50 58/37/50 64/96/50 39/97/50
f 34/26/51 63/98/51 61/32/51
f 68/28/52 67/99/52 4/79/52 3/3/52
f 53/53/53 50/29/53 20/68/53 75/15/53
f 40/94/54 11/9/54 13/10/54 31/33/54
f 39/97/55 64/96/55 57/45/55 5/46/55
f 26/42/56 1/100/56 2/8/56 23/91/56
f 31/33/57 15/11/57 17/12/57 33/95/57
f 59/47/58 56/5/58 8/4/58 27/22/58
f 34/26/59 21/25/59 7/101/59 63/98/59
f 36/17/60 41/93/60 12/41/60 10/102/60
f 27/22/61 8/4/61 22/89/61 38/103/61
f 35/19/62 9/7/62 11/9/62 40/94/62
f 39/97/63 5/46/63 1/100/63 26/42/63
f 75/15/64 20/68/64 18/38/64 37/13/64
f 13/10/65 15/11/65 31/33/65
f 36/17/66 10/102/66 4/79/66 67/99/66
f 74/14/67 33/95/67 17/12/67 19/30/67
f 23/91/68 2/8/68 9/7/68 35/19/68
f 43/104/69 40/94/69 28/21/69 42/20/69
f 42/20/70 35/19/70 40/94/70 43/104/70
f 45/50/71 44/24/71 47/23/71 46/105/71
f 45/50/72 46/105/72 38/103/72 34/26/72
f 46/105/73 47/23/73 27/22/73 38/103/73
f 45/50/74 34/26/74 27/22/74 44/24/74
f 38/103/75 22/89/75 51/27/75 34/26/75
f 32/34/76 30/36/76 52/35/76 31/33/76
f 50/29/77 53/53/77 74/14/77
f 52/35/78 29/16/78 25/106/78 72/90/78
f 55/107/79 54/43/79 26/42/79 23/91/79
f 48/1/1 7/101/1 21/25/1 51/27/1
f 49/6/1 18/38/1 20/68/1 50/29/1
f 2/8/1 1/100/1 48/1/1 49/6/1
f 10/102/1 12/41/1 49/6/1
f 4/79/1 10/102/1 49/6/1
f 57/45/1 7/101/1 48/1/1
f 1/100/1 5/46/1 48/1/1
f 23/91/80 72/90/80 55/107/80
f 60/31/81 58/37/81 26/42/81 73/44/81
f 68/28/82 6/2/82 56/5/82 59/47/82
f 63/98/83 7/101/83 57/45/83 64/96/83
f 59/47/84 60/31/84 73/44/84 65/48/84
f 64/96/85 58/37/85 62/49/85
f 61/32/86 63/98/86 64/96/86 62/49/86
f 48/1/1 56/5/1 6/2/1
f 66/18/87 36/17/87 67/99/87 25/106/87
f 24/92/88 69/108/88 68/28/88 65/48/88
f 24/92/89 25/106/89 67/99/89 69/108/89
f 24/92/90 73/44/90 72/90/90 25/106/90
f 25/106/91 29/16/91 66/18/91
f 67/99/92 68/28/92 69/108/92
f 45/50/93 44/24/93 70/51/93
f 76/109/94 29/16/94 30/36/94 77/110/94
f 113/80/95 79/111/95 121/78/95 103/77/95
f 87/59/96 78/73/96 120/75/96 104/57/96
f 89/112/97 96/113/97 84/114/97 82/83/97
f 122/67/98 88/61/98 90/71/98
f 82/83/99 114/82/99 89/112/99
f 81/55/100 99/88/100 102/115/100
f 103/77/101 94/116/101 112/117/101 107/118/101
f 83/58/102 85/60/102 91/64/102
f 116/69/103 3/3/103 4/79/103 115/84/103
f 94/116/104 5/46/104 57/45/104 112/117/104
f 78/73/105 2/8/105 1/100/105 103/77/105
f 8/4/106 56/5/106 108/56/106 81/55/106
f 7/101/107 21/25/107 92/63/107 111/66/107
f 89/112/108 10/102/108 12/41/108 96/113/108
f 22/89/109 8/4/109 81/55/109 93/119/109
f 11/9/110 9/7/110 87/59/110 91/64/110
f 1/100/111 5/46/111 94/116/111 103/77/111
f 86/62/112 15/11/112 13/10/112 91/64/112
f 18/38/113 20/68/113 122/67/113 90/71/113
f 4/79/114 10/102/114 89/112/114 115/84/114
f 19/30/115 17/12/115 86/62/115 88/61/115
f 9/7/116 2/8/116 78/73/116 87/59/116
f 87/59/117 83/58/117 98/70/117 97/120/117
f 91/64/118 87/59/118 97/120/118 98/70/118
f 100/86/119 101/121/119 102/115/119 99/88/119
f 100/86/120 92/63/120 93/119/120 101/121/120
f 101/121/121 93/119/121 81/55/121 102/115/121
f 81/55/122 92/63/122 100/86/122 99/88/122
f 51/27/123 22/89/123 93/119/123 92/63/123
f 50/29/124 19/30/124 88/61/124 122/67/124
f 104/57/125 84/114/125 95/72/125 85/60/125
f 104/57/126 120/75/126 80/81/126 82/83/126
f 82/83/127 84/114/127 104/57/127
f 106/74/128 78/73/128 103/77/128 105/76/128
f 107/118/129 110/65/129 109/54/129
f 108/56/130 56/5/130 6/2/130 116/69/130
f 103/77/131 107/118/131 109/54/131
f 57/45/132 7/101/132 111/66/132 112/117/132
f 108/56/133 113/80/133 103/77/133 109/54/133
f 112/117/134 111/66/134 110/65/134 107/118/134
f 115/84/135 89/112/135 114/82/135 80/81/135
f 116/69/136 117/85/136 79/111/136 113/80/136
f 79/111/137 117/85/137 115/84/137 80/81/137
f 120/75/138 121/78/138 79/111/138 80/81/138
f 100/86/139 119/122/139 118/87/139
f 84/114/140 82/83/140 123/123/140 124/124/140
usemtl Material.002
f 16/39/141 95/72/141 14/40/141
f 41/93/142 32/34/142 14/40/142 12/41/142
f 41/93/143 30/36/143 32/34/143
f 32/34/144 37/13/144 18/38/144 16/39/144
f 16/39/145 14/40/145 32/34/145
f 96/113/146 12/41/146 14/40/146 95/72/146
f 95/72/147 84/114/147 96/113/147
f 95/72/148 16/39/148 18/38/148 90/71/148
usemtl Material.004
f 55/107/149 72/90/149 73/44/149 54/43/149
f 121/78/150 120/75/150 106/74/150 105/76/150
