# Blender v3.0.1 OBJ File: ''
# www.blender.org
mtllib spaceship_high2.mtl
o Plane
v -0.267134 0.725444 0.000000
v 0.076137 -0.176000 -0.000000
v 0.677320 -0.458554 -0.000000
v 0.392924 -0.349171 -0.000000
v 1.679516 -0.417094 -0.000000
v 1.028569 -0.458554 -0.000000
v 1.595199 0.312309 0.000000
v 1.278927 -0.263374 -0.000000
v 1.680976 0.031955 0.000000
v 1.448470 -0.323535 -0.000000
v 1.831290 0.138836 0.000000
v -1.765056 -0.163673 -0.000000
v -1.191422 0.374087 0.000000
v 0.121254 0.129390 0.276344
v -0.237728 0.699054 0.196350
v -0.227069 0.422448 0.256237
v 0.451011 -0.143905 0.233162
v 0.683254 -0.459003 0.223193
v 1.094926 -0.287773 0.237071
v 1.750619 -0.443484 0.234956
v 1.278927 -0.263374 0.249586
v 1.406888 0.622857 0.235241
v 1.680976 0.031955 0.233162
v 1.802814 0.442082 0.234783
v 1.868649 0.211156 0.176270
v -0.898872 0.407993 0.230958
v -1.746051 -0.182541 0.207736
v 1.380301 0.624249 0.112032
v 1.791735 0.803002 0.369042
v 0.392924 -0.349171 0.233162
v -1.858429 0.026950 0.211857
v -1.201582 0.365233 0.111626
v 0.666382 0.474778 0.233162
v -0.163220 -0.354640 0.233162
v -0.718460 -0.305970 0.231958
v -0.719128 -0.306384 0.111734
v 1.448470 -0.323535 0.233162
v 1.801164 0.442152 0.111733
v 1.801164 0.442152 0.000000
v 1.869616 0.269641 0.000000
v 0.666382 0.474778 0.000000
v 1.857491 0.228258 0.000000
v -0.163220 -0.354640 -0.000000
v 1.787558 -0.458554 -0.000000
v 1.541446 0.562468 0.000000
v -0.719128 -0.306384 -0.000000
v 1.371902 0.622629 0.000000
v -1.864126 0.037429 0.000000
v -1.738336 -0.217911 -0.000000
v -1.074847 -0.275506 0.111734
v -1.074847 -0.275506 -0.000000
v -0.917226 -0.451158 0.172448
v -1.074847 -0.275506 0.233162
v -0.375445 0.103874 0.277493
v -0.209438 -0.054044 0.305787
v -0.830763 0.501591 0.000000
v -0.763437 -0.461029 0.172448
v 2.034553 0.696167 0.368662
v -0.127842 -0.050736 0.233477
v 0.470657 -0.581517 1.098150
v 0.700647 -0.585993 1.093398
v 0.121254 0.129390 -0.276344
v -0.227069 0.422448 -0.256237
v -0.237728 0.699054 -0.196350
v 0.451011 -0.143905 -0.233162
v 1.094926 -0.287773 -0.237071
v 0.683254 -0.459003 -0.223193
v 1.750619 -0.443484 -0.234956
v 1.278927 -0.263374 -0.249587
v 1.406888 0.622857 -0.235241
v 1.802814 0.442082 -0.234783
v 1.680976 0.031955 -0.233162
v 1.875555 0.269325 -0.183675
v 1.831290 0.138836 -0.176300
v -0.898872 0.407993 -0.230958
v -1.746051 -0.182541 -0.207736
v 1.380301 0.624249 -0.112032
v 1.791735 0.803002 -0.369042
v 0.392924 -0.349171 -0.233162
v -1.858429 0.026950 -0.211857
v -1.201582 0.365233 -0.111626
v 0.666382 0.474778 -0.233162
v -0.163220 -0.354640 -0.233162
v -0.719128 -0.306384 -0.111734
v -0.718460 -0.305970 -0.231958
v 1.448470 -0.323535 -0.233162
v 1.801164 0.442152 -0.111733
v -1.074847 -0.275506 -0.111734
v -1.074847 -0.275506 -0.233162
v -0.917226 -0.451158 -0.172448
v -0.375445 0.103874 -0.277493
v -0.209438 -0.054044 -0.305787
v -0.763437 -0.461029 -0.172448
v 2.034553 0.696167 -0.368662
v -0.127842 -0.050736 -0.233477
v 0.470657 -0.581517 -1.098150
v 0.700647 -0.585993 -1.093398
vt 0.500000 0.202784
vt 1.000000 0.000000
vt 1.000000 0.000000
vt 1.000000 -0.031187
vt 1.000000 0.000000
vt 1.000000 1.000000
vt 1.000000 1.000000
vt 1.000000 1.000000
vt 1.000000 1.000000
vt 0.000000 0.212418
vt 0.000000 1.000000
vt 0.322572 0.466470
vt 0.000000 1.000000
vt 0.000000 0.724331
vt 1.000000 0.212418
vt 1.000000 0.000000
vt 1.000000 0.135507
vt 1.000000 -0.014022
vt 1.000000 1.000000
vt 1.000000 1.000000
vt 1.000000 1.000000
vt 0.000000 1.000000
vt 0.000000 1.000000
vt 0.000000 1.000000
vt 1.000000 1.000000
vt 1.000000 1.000000
vt 0.000000 0.000000
vt 0.000000 0.000415
vt 0.000000 0.000000
vt 1.000000 1.000000
vt 1.000000 1.000000
vt 1.000000 1.000000
vt 1.000000 1.000000
vt 1.000000 1.000000
vt 1.000000 1.000000
vt 0.000000 1.000000
vt 1.000000 1.000000
vt 1.000000 1.000000
vt 0.000000 0.000000
vt 1.000000 0.000000
vt 1.000000 1.000000
vt 1.000000 1.000000
vt 1.000000 1.000000
vt 0.000000 0.000000
vt 1.000000 1.000000
vt 0.000000 1.000000
vt 1.000000 0.000000
vt 0.000000 0.000000
vt 0.000000 0.161110
vt 0.000000 0.000000
vt 0.000000 0.000000
vt 0.000000 0.000000
vt 0.000000 0.000000
vt 0.000000 0.464025
vt 0.000000 0.212418
vt 0.000000 1.000000
vt 0.000000 0.000000
vt 1.000000 1.000000
vt 0.035301 0.212418
vt 0.000000 0.111271
vt 1.000000 0.100459
vt 0.322572 0.466470
vt 0.000000 0.724331
vt 0.000000 1.000000
vt 1.000000 0.212418
vt 1.000000 0.135507
vt 1.000000 0.000000
vt 1.000000 -0.014022
vt 1.000000 1.000000
vt 1.000000 1.000000
vt 1.000000 1.000000
vt 1.000000 1.000000
vt 1.000000 1.000000
vt 0.000000 1.000000
vt 0.000000 1.000000
vt 0.000000 1.000000
vt 1.000000 1.000000
vt 1.000000 1.000000
vt 0.000000 0.000000
vt 0.000000 0.000000
vt 0.000000 0.000415
vt 1.000000 1.000000
vt 1.000000 1.000000
vt 1.000000 1.000000
vt 1.000000 1.000000
vt 1.000000 0.000000
vt 0.000000 0.161110
vt 0.000000 0.000000
vt 0.000000 0.000000
vt 0.000000 0.000000
vt 0.000000 0.464025
vt 0.000000 0.212418
vt 0.000000 0.000000
vt 1.000000 1.000000
vt 0.035301 0.212418
vt 0.000000 0.111272
vt 1.000000 0.100459
vn 0.0000 0.0000 -1.0000
vn -0.0502 -0.1095 0.9927
vn 0.1246 0.2145 0.9687
vn 0.0582 0.1135 0.9918
vn 0.0029 -0.0117 0.9999
vn -0.1694 -0.5326 0.8292
vn -0.0219 -0.0326 0.9992
vn 0.1279 -0.9288 0.3477
vn -0.2780 0.5914 0.7569
vn 0.4052 -0.2660 0.8747
vn 0.2819 -0.4788 0.8314
vn -0.3211 0.7819 0.5344
vn -0.3198 0.7885 0.5254
vn -0.3204 0.7808 0.5364
vn -0.1251 0.5860 0.8006
vn -0.1975 0.9793 0.0446
vn -0.0622 -0.6976 0.7137
vn -0.0839 -0.9494 0.3028
vn -0.0871 -0.9962 0.0030
vn 0.1266 0.8619 0.4910
vn -0.3344 -0.9424 0.0000
vn 0.9220 0.3659 0.1264
vn 0.2593 0.9658 0.0000
vn 0.5795 -0.8150 -0.0000
vn 0.9560 -0.2801 -0.0877
vn 0.0098 -1.0000 0.0000
vn 0.0000 -1.0000 -0.0020
vn 0.4203 0.9074 0.0000
vn 0.3583 0.9336 -0.0036
vn 0.8369 -0.5474 -0.0000
vn -0.0865 -0.9963 0.0000
vn -0.2051 0.9787 0.0012
vn -0.4473 0.8939 0.0302
vn -0.3590 -0.9333 -0.0000
vn 0.3342 0.9417 -0.0387
vn -0.8963 -0.4415 0.0419
vn -0.5467 -0.2929 0.7845
vn -0.8921 -0.4508 0.0308
vn -0.1130 -0.9936 0.0000
vn -0.1071 -0.9941 0.0158
vn -0.5915 -0.6804 -0.4327
vn -0.2450 -0.9695 0.0019
vn -0.7443 -0.6679 0.0000
vn -0.1519 0.0174 0.9882
vn -0.0914 -0.9851 0.1457
vn -0.0853 -0.9827 0.1642
vn 0.2715 -0.2221 0.9365
vn -0.0507 -0.0139 0.9986
vn 0.3827 -0.9239 0.0032
vn -0.0271 -0.3549 -0.9345
vn 0.9609 -0.2770 -0.0044
vn -0.1105 0.8901 -0.4421
vn 0.2459 0.5670 -0.7861
vn 0.8728 0.3141 0.3737
vn -0.0022 -0.0008 1.0000
vn -0.6534 -0.3488 0.6719
vn -0.8971 -0.4419 0.0023
vn -0.7916 0.0915 0.6041
vn -0.2086 0.7625 0.6124
vn -0.4702 0.5690 0.6747
vn 0.3616 -0.8925 -0.2698
vn 0.0108 -0.9763 0.2163
vn 0.0097 -0.9826 -0.1852
vn 0.0314 0.0305 0.9990
vn -0.0303 -0.1916 0.9810
vn -0.0089 -0.0900 0.9959
vn -0.0950 -0.3360 0.9370
vn -0.0071 -0.7138 0.7003
vn 0.9272 0.1813 0.3279
vn 0.6549 -0.5084 0.5591
vn 0.7038 -0.3339 0.6270
vn 0.9607 0.2771 -0.0127
vn 0.9599 0.2804 0.0000
vn 0.2361 0.9671 0.0946
vn 0.1987 0.8740 0.4435
vn 0.0468 0.3425 0.9384
vn 0.7054 -0.6956 0.1359
vn 0.0138 -0.9977 0.0662
vn 0.3963 0.9158 0.0650
vn 0.3567 0.9342 0.0000
vn -0.2049 0.9788 0.0000
vn -0.4503 0.8911 0.0562
vn -0.3536 -0.9354 0.0075
vn -0.3191 0.7875 0.5273
vn -0.0393 0.0847 0.9956
vn 0.0714 0.0333 0.9969
vn -0.1372 -0.9905 0.0000
vn 0.0418 0.4541 0.8900
vn 0.7415 -0.6709 -0.0103
vn 0.3669 -0.8513 0.3751
vn 0.6792 -0.2791 0.6788
vn 0.8874 -0.2511 -0.3866
vn 0.4997 0.6315 0.5928
vn -0.0069 0.1348 0.9909
vn -0.1027 -0.0246 0.9944
vn 0.1010 -0.0352 0.9943
vn -0.0413 0.2099 0.9769
vn -0.0502 -0.1095 -0.9927
vn 0.0582 0.1135 -0.9918
vn 0.1246 0.2145 -0.9687
vn 0.0029 -0.0117 -0.9999
vn -0.0219 -0.0326 -0.9992
vn -0.1333 -0.7465 -0.6520
vn 0.7930 -0.1212 -0.5971
vn -0.2780 0.5914 -0.7569
vn 0.2819 -0.4788 -0.8314
vn 0.4052 -0.2660 -0.8747
vn 0.9233 0.3313 -0.1944
vn 0.8672 -0.0330 -0.4969
vn 0.9248 -0.3140 -0.2148
vn -0.3211 0.7819 -0.5344
vn -0.3177 0.7834 -0.5341
vn -0.3225 0.7857 -0.5279
vn -0.1251 0.5860 -0.8006
vn -0.0717 0.9974 -0.0111
vn -0.0622 -0.6976 -0.7137
vn -0.0867 -0.9962 -0.0011
vn -0.0839 -0.9494 -0.3028
vn 0.1266 0.8619 -0.4910
vn -0.0024 -0.0645 -0.9979
vn 0.9239 0.3823 0.0145
vn 0.9984 0.0470 0.0322
vn 0.2402 0.9675 -0.0786
vn 0.2112 0.8674 -0.4505
vn 0.6271 -0.6772 -0.3849
vn 0.9568 -0.2902 0.0183
vn 0.0098 -0.9950 0.0993
vn 0.0118 -0.9983 -0.0566
vn 0.0000 -1.0000 0.0020
vn 0.3999 0.9149 -0.0556
vn 0.4148 0.9098 -0.0155
vn 0.3571 0.9340 0.0010
vn 0.3583 0.9336 0.0036
vn 0.2784 -0.7705 -0.5735
vn -0.2049 0.9788 -0.0001
vn 0.0544 0.9983 0.0185
vn -0.4501 0.8914 -0.0537
vn -0.4473 0.8939 -0.0302
vn -0.4478 0.8935 -0.0343
vn -0.3558 -0.9346 -0.0044
vn -0.2201 -0.6421 -0.7343
vn 0.3342 0.9417 0.0387
vn -0.5294 -0.8394 -0.1232
vn -0.8921 -0.4508 -0.0308
vn -0.4585 -0.5913 -0.6634
vn -0.1071 -0.9941 -0.0158
vn -0.5915 -0.6804 0.4327
vn -0.2450 -0.9695 -0.0019
vn -0.1519 0.0174 -0.9882
vn 0.2715 -0.2221 -0.9365
vn -0.0507 -0.0139 -0.9986
vn 0.3827 -0.9239 -0.0032
vn -0.0271 -0.3549 0.9345
vn 0.9609 -0.2770 0.0044
vn -0.1105 0.8901 0.4421
vn 0.2459 0.5670 0.7861
vn 0.8728 0.3141 -0.3737
vn -0.0022 -0.0008 -1.0000
vn -0.8971 -0.4419 -0.0023
vn -0.6534 -0.3488 -0.6719
vn -0.7916 0.0915 -0.6041
vn -0.4702 0.5690 -0.6747
vn -0.2086 0.7625 -0.6124
vn 0.3616 -0.8925 0.2698
vn 0.0108 -0.9763 -0.2163
vn 0.9597 -0.2812 0.0000
vn -0.0303 -0.1916 -0.9810
vn -0.0089 -0.0900 -0.9959
vn 0.4313 -0.1316 -0.8926
vn 0.6103 -0.5607 -0.5596
vn 0.9203 0.3911 0.0121
vn 0.9185 0.3954 0.0000
vn 0.1987 0.8740 -0.4435
vn 0.3963 0.9158 -0.0650
vn -0.4503 0.8911 -0.0562
vn -0.3191 0.7875 -0.5273
vn 0.0714 0.0333 -0.9969
vn -0.0393 0.0847 -0.9956
vn 0.0418 0.4541 -0.8900
vn 0.7415 -0.6709 0.0103
vn 0.3669 -0.8513 -0.3751
vn 0.6792 -0.2791 -0.6788
vn 0.8874 -0.2511 0.3866
vn 0.4997 0.6315 -0.5928
vn -0.0069 0.1348 -0.9909
vn -0.1027 -0.0246 -0.9944
vn 0.1010 -0.0352 -0.9943
vn -0.0413 0.2099 -0.9769
vn -0.3388 0.9276 0.1573
vn -0.3378 0.9401 0.0467
vn -0.3359 0.9255 0.1747
vn -0.3649 0.9277 -0.0787
vn -0.3330 0.9419 0.0444
vn -0.3359 0.9255 -0.1747
vn -0.3676 0.9256 0.0905
vn -0.3330 0.9419 -0.0444
vn 0.0267 0.8922 0.4508
vn 0.1426 0.8845 0.4442
vn 0.0267 0.8922 -0.4508
vn 0.1426 0.8845 -0.4442
usemtl yes
s 1
f 2/1/1 3/2/1 4/3/1
f 5/4/1 6/5/1 2/1/1
f 7/6/1 9/7/1 10/8/1
f 7/6/1 11/9/1 9/7/1
f 12/10/1 13/11/1 2/1/1
f 14/12/2 15/13/3 16/14/4
f 17/15/5 18/16/6 19/17/7
f 18/16/6 20/18/8 19/17/7
f 22/19/9 23/20/10 24/21/11
f 31/22/12 26/23/13 32/24/14
f 33/25/15 22/19/9 28/26/16
f 34/27/17 35/28/18 36/29/19
f 24/21/11 29/30/20 22/19/9
f 10/8/21 21/31/21 8/32/21
f 39/33/22 25/34/22 40/35/22
f 1/36/23 33/25/23 41/37/23
f 11/9/24 23/20/24 9/7/24
f 40/35/25 25/34/25 42/38/25
f 4/3/26 34/27/26 43/39/26
f 44/40/27 18/16/27 6/5/27
f 45/41/28 38/42/28 39/33/28
f 8/32/29 20/18/29 5/4/29
f 9/7/30 37/43/30 10/8/30
f 43/39/31 36/29/31 46/44/31
f 41/37/32 28/26/32 47/45/32
f 48/46/33 32/24/33 13/11/33
f 3/2/34 30/47/34 4/3/34
f 47/45/35 28/26/35 45/41/35
f 49/48/36 27/49/37 12/10/38
f 46/44/31 50/50/39 51/51/40
f 50/50/41 52/52/42 53/53/43
f 54/54/44 35/28/44 55/55/44
f 2/1/1 56/56/1 1/36/1
f 51/51/40 27/49/45 49/48/46
f 35/28/47 26/23/48 27/49/37
f 35/28/47 52/52/42 57/57/49
f 36/29/50 52/52/42 50/50/41
f 35/28/47 57/57/49 36/29/51
f 22/19/9 29/30/20 28/26/52
f 38/42/53 29/30/20 58/58/54
f 51/51/1 2/1/1 46/44/1
f 46/44/1 2/1/1 43/39/1
f 59/59/55 35/28/18 34/27/17
f 12/10/38 31/22/56 48/46/57
f 5/4/29 20/18/29 44/40/29
f 33/25/15 19/17/7 22/19/9
f 34/27/58 60/60/59 59/59/60
f 49/48/1 2/1/1 51/51/1
f 8/32/1 2/1/1 7/6/1
f 2/1/1 4/3/1 43/39/1
f 30/47/61 60/60/62 34/27/63
f 7/6/1 2/1/1 47/45/1
f 6/5/27 18/16/27 3/2/27
f 42/38/25 25/34/25 11/9/25
f 40/35/1 7/6/1 39/33/1
f 45/41/1 7/6/1 47/45/1
f 2/1/1 6/5/1 3/2/1
f 19/17/7 21/31/64 22/19/9
f 1/36/1 41/37/1 2/1/1
f 5/4/1 44/40/1 6/5/1
f 7/6/1 10/8/1 8/32/1
f 7/6/1 42/38/1 11/9/1
f 12/10/1 48/46/1 13/11/1
f 17/15/65 14/12/2 59/59/66
f 17/15/5 30/47/67 18/16/6
f 21/31/64 37/43/68 22/19/9
f 22/19/9 37/43/68 23/20/10
f 24/21/69 23/20/70 25/34/71
f 26/23/48 31/22/56 27/49/37
f 24/21/11 58/58/54 29/30/20
f 38/42/72 24/21/69 25/34/71
f 10/8/21 37/43/68 21/31/64
f 39/33/73 38/42/73 25/34/73
f 1/36/74 15/13/75 33/25/76
f 11/9/77 25/34/71 23/20/70
f 4/3/26 30/47/61 34/27/63
f 44/40/78 20/18/8 18/16/6
f 45/41/79 28/26/79 38/42/79
f 8/32/80 21/31/64 20/18/8
f 9/7/30 23/20/10 37/43/68
f 43/39/31 34/27/17 36/29/19
f 41/37/81 33/25/15 28/26/16
f 48/46/82 31/22/82 32/24/82
f 3/2/83 18/16/6 30/47/67
f 46/44/31 36/29/31 50/50/39
f 15/13/84 32/24/14 26/23/13
f 16/14/4 26/23/85 54/54/86
f 50/50/87 53/53/87 27/49/87
f 51/51/40 50/50/39 27/49/45
f 2/1/1 13/11/1 56/56/1
f 35/28/47 53/53/88 52/52/42
f 36/29/50 57/57/49 52/52/42
f 24/21/11 38/42/89 58/58/54
f 38/42/53 28/26/52 29/30/20
f 35/28/47 27/49/37 53/53/88
f 55/55/90 35/28/90 59/59/90
f 12/10/38 27/49/37 31/22/56
f 33/25/15 17/15/5 19/17/7
f 49/48/1 12/10/1 2/1/1
f 8/32/1 5/4/1 2/1/1
f 41/37/1 47/45/1 2/1/1
f 30/47/61 61/61/91 60/60/62
f 30/47/61 17/15/92 61/61/91
f 40/35/1 42/38/1 7/6/1
f 45/41/1 39/33/1 7/6/1
f 19/17/7 20/18/8 21/31/64
f 54/54/93 55/55/93 59/59/93
f 14/12/94 33/25/76 15/13/75
f 54/54/95 26/23/48 35/28/47
f 17/15/96 33/25/96 14/12/96
f 16/14/97 15/13/97 26/23/97
f 62/62/98 63/63/99 64/64/100
f 65/65/101 66/66/102 67/67/103
f 67/67/103 66/66/102 68/68/104
f 70/69/105 71/70/106 72/71/107
f 71/70/108 73/72/109 74/73/110
f 80/74/111 81/75/112 75/76/113
f 82/77/114 77/78/115 70/69/105
f 83/79/116 84/80/117 85/81/118
f 71/70/106 70/69/105 78/82/119
f 10/8/21 8/32/21 69/83/120
f 39/33/121 40/35/122 73/72/109
f 1/36/123 41/37/23 82/77/124
f 11/9/24 9/7/24 72/71/125
f 40/35/122 42/38/126 73/72/109
f 4/3/26 43/39/26 83/79/127
f 44/40/128 6/5/129 67/67/103
f 45/41/130 39/33/28 87/84/131
f 8/32/132 5/4/133 68/68/104
f 9/7/30 10/8/30 86/85/134
f 43/39/31 46/44/31 84/80/117
f 41/37/135 47/45/136 77/78/115
f 48/46/137 13/11/138 81/75/139
f 3/2/140 4/3/34 79/86/141
f 47/45/136 45/41/142 77/78/115
f 49/48/143 12/10/144 76/87/145
f 46/44/31 51/51/146 88/88/39
f 88/88/147 89/89/43 90/90/148
f 91/91/149 92/92/149 85/81/149
f 51/51/146 49/48/143 76/87/145
f 85/81/150 76/87/145 75/76/151
f 85/81/150 93/93/152 90/90/148
f 84/80/153 88/88/147 90/90/148
f 85/81/150 84/80/154 93/93/152
f 70/69/105 77/78/155 78/82/119
f 87/84/156 94/94/157 78/82/119
f 95/95/158 83/79/116 85/81/118
f 12/10/144 48/46/159 80/74/160
f 5/4/133 44/40/133 68/68/104
f 82/77/114 70/69/105 66/66/102
f 83/79/161 95/95/162 96/96/163
f 79/86/164 83/79/127 96/96/165
f 6/5/129 3/2/129 67/67/103
f 42/38/126 11/9/166 74/73/110
f 66/66/102 70/69/105 69/83/120
f 65/65/167 95/95/168 62/62/98
f 65/65/101 67/67/103 79/86/141
f 69/83/120 70/69/105 86/85/134
f 70/69/105 72/71/107 86/85/134
f 71/70/169 74/73/170 72/71/125
f 75/76/151 76/87/145 80/74/160
f 71/70/106 78/82/119 94/94/157
f 87/84/171 73/72/109 71/70/108
f 10/8/21 69/83/120 86/85/134
f 39/33/121 73/72/109 87/84/172
f 1/36/123 82/77/124 64/64/173
f 11/9/24 72/71/125 74/73/170
f 4/3/26 83/79/127 79/86/164
f 44/40/128 67/67/103 68/68/104
f 45/41/130 87/84/131 77/78/174
f 8/32/132 68/68/104 69/83/120
f 9/7/30 86/85/134 72/71/107
f 43/39/31 84/80/117 83/79/116
f 41/37/135 77/78/115 82/77/114
f 48/46/137 81/75/139 80/74/175
f 3/2/140 79/86/141 67/67/103
f 46/44/31 88/88/39 84/80/117
f 64/64/176 75/76/113 81/75/112
f 63/63/99 91/91/177 75/76/178
f 88/88/87 76/87/87 89/89/87
f 51/51/146 76/87/145 88/88/39
f 85/81/150 90/90/148 89/89/179
f 84/80/153 90/90/148 93/93/152
f 71/70/106 94/94/157 87/84/180
f 87/84/156 78/82/119 77/78/155
f 85/81/150 89/89/179 76/87/145
f 92/92/181 95/95/181 85/81/181
f 12/10/144 80/74/160 76/87/145
f 82/77/114 66/66/102 65/65/101
f 79/86/164 96/96/165 97/97/182
f 79/86/164 97/97/182 65/65/183
f 42/38/126 74/73/110 73/72/109
f 66/66/102 69/83/120 68/68/104
f 91/91/184 95/95/184 92/92/184
f 62/62/185 64/64/173 82/77/124
f 91/91/186 85/81/150 75/76/151
f 65/65/187 62/62/187 82/77/187
f 63/63/188 75/76/188 64/64/188
usemtl window
f 1/36/189 32/24/190 15/13/191
f 1/36/189 56/56/192 32/24/190
f 56/56/192 13/11/193 32/24/190
f 16/14/4 54/54/86 59/59/66
f 14/12/2 16/14/4 59/59/66
f 1/36/194 64/64/194 81/75/194
f 1/36/195 81/75/195 56/56/195
f 56/56/196 81/75/196 13/11/196
f 63/63/99 95/95/168 91/91/177
f 62/62/98 95/95/168 63/63/99
usemtl wings
f 17/15/197 60/60/62 61/61/91
f 59/59/60 60/60/59 17/15/198
f 65/65/199 97/97/182 96/96/165
f 95/95/162 65/65/200 96/96/163
o Cylinder
v 1.849848 -0.112278 -0.133637
v 1.449848 -0.260543 -0.206771
v 1.449848 -0.104964 -0.124724
v 1.849848 -0.272936 -0.206771
v 1.449848 -0.406274 -0.146071
v 1.849848 -0.428515 -0.124724
v 1.449848 -0.474094 -0.005612
v 1.849848 -0.469738 0.026371
v 1.449848 -0.371826 0.183391
v 1.849848 -0.360355 0.189522
v 1.449848 -0.175400 0.183697
v 1.849848 -0.165232 0.178262
v 1.449848 -0.064578 0.047114
v 1.849848 -0.062160 0.034960
vt 0.981567 1.000000
vt 0.879487 0.500000
vt 0.987183 0.500000
vt 0.869810 1.000000
vt 0.753903 0.500000
vt 0.729831 1.000000
vt 0.629601 0.500000
vt 0.604831 1.000000
vt 0.457368 0.500000
vt 0.448023 1.000000
vt 0.301419 0.500000
vt 0.292331 1.000000
vt 0.161440 0.500000
vt 0.151649 1.000000
vt 0.026221 0.500000
vt 0.061784 0.383892
vt 0.177219 0.035384
vt 0.482421 0.220342
vt 0.987076 0.255848
vt 0.689961 0.031004
vt 0.527831 0.175568
vt 0.020810 1.000000
vt 0.023921 0.188457
vt 0.393375 0.064682
vt 0.418376 0.407645
vt 0.233745 0.483742
vt 0.720342 0.482421
vt 0.908741 0.418008
vt 0.918039 0.091521
vt 0.554104 0.371767
vn -0.0112 0.4664 -0.8845
vn -0.0119 -0.3845 -0.9231
vn -0.0269 -0.9002 -0.4347
vn -0.0285 -0.8791 0.4757
vn -0.0153 -0.0016 0.9999
vn -0.0112 0.7765 0.6300
vn -0.0128 0.9734 -0.2288
vn 1.0000 -0.0000 0.0000
vn -1.0000 -0.0000 0.0000
vn 0.0128 0.4143 -0.9101
vn 0.0213 -0.4664 -0.8843
vn 0.0315 -0.9643 -0.2631
vn 0.0153 -0.8305 0.5568
vn 0.0121 0.0576 0.9983
vn 0.0128 0.8118 0.5839
vn 0.0112 0.9585 -0.2849
usemtl Material.002
s 1
f 98/98/201 99/99/201 100/100/201
f 101/101/202 102/102/202 99/99/202
f 103/103/203 104/104/203 102/102/203
f 105/105/204 106/106/204 104/104/204
f 107/107/205 108/108/205 106/106/205
f 109/109/206 110/110/206 108/108/206
f 111/111/207 100/112/207 110/110/207
f 111/113/208 107/114/208 103/115/208
f 102/116/209 106/117/209 108/118/209
f 98/98/210 101/101/210 99/99/210
f 101/101/211 103/103/211 102/102/211
f 103/103/212 105/105/212 104/104/212
f 105/105/213 107/107/213 106/106/213
f 107/107/214 109/109/214 108/108/214
f 109/109/215 111/111/215 110/110/215
f 111/111/216 98/119/216 100/112/216
f 111/113/208 109/120/208 107/114/208
f 105/121/208 103/115/208 107/114/208
f 101/122/208 98/123/208 111/113/208
f 101/122/208 111/113/208 103/115/208
f 100/124/209 99/125/209 102/116/209
f 104/126/209 106/117/209 102/116/209
f 108/118/209 110/127/209 100/124/209
f 100/124/209 102/116/209 108/118/209
